<?xml version="1.0" standalone="no"?>
<svg xmlns:xlink="http://www.w3.org/1999/xlink" id="wave" style="transform:rotate(180deg); transition: 0.3s" viewBox="0 0 1440 480" version="1.1" xmlns="http://www.w3.org/2000/svg"><defs><linearGradient id="sw-gradient-0" x1="0" x2="0" y1="1" y2="0"><stop stop-color="rgba(62, 89.718, 243, 1)" offset="0%"/><stop stop-color="rgba(0, 0, 0, 1)" offset="100%"/></linearGradient></defs><path style="transform:translate(0, 0px); opacity:1" fill="url(#sw-gradient-0)" d="M0,144L21.8,168C43.6,192,87,240,131,288C174.5,336,218,384,262,352C305.5,320,349,208,393,168C436.4,128,480,160,524,216C567.3,272,611,352,655,360C698.2,368,742,304,785,248C829.1,192,873,144,916,160C960,176,1004,256,1047,264C1090.9,272,1135,208,1178,200C1221.8,192,1265,240,1309,264C1352.7,288,1396,288,1440,264C1483.6,240,1527,192,1571,176C1614.5,160,1658,176,1702,184C1745.5,192,1789,192,1833,208C1876.4,224,1920,256,1964,272C2007.3,288,2051,288,2095,272C2138.2,256,2182,224,2225,200C2269.1,176,2313,160,2356,192C2400,224,2444,304,2487,280C2530.9,256,2575,128,2618,96C2661.8,64,2705,128,2749,128C2792.7,128,2836,64,2880,48C2923.6,32,2967,64,3011,104C3054.5,144,3098,192,3120,216L3141.8,240L3141.8,480L3120,480C3098.2,480,3055,480,3011,480C2967.3,480,2924,480,2880,480C2836.4,480,2793,480,2749,480C2705.5,480,2662,480,2618,480C2574.5,480,2531,480,2487,480C2443.6,480,2400,480,2356,480C2312.7,480,2269,480,2225,480C2181.8,480,2138,480,2095,480C2050.9,480,2007,480,1964,480C1920,480,1876,480,1833,480C1789.1,480,1745,480,1702,480C1658.2,480,1615,480,1571,480C1527.3,480,1484,480,1440,480C1396.4,480,1353,480,1309,480C1265.5,480,1222,480,1178,480C1134.5,480,1091,480,1047,480C1003.6,480,960,480,916,480C872.7,480,829,480,785,480C741.8,480,698,480,655,480C610.9,480,567,480,524,480C480,480,436,480,393,480C349.1,480,305,480,262,480C218.2,480,175,480,131,480C87.3,480,44,480,22,480L0,480Z"/></svg>